<svg xmlns="http://www.w3.org/2000/svg" width="20" height="20" viewBox="0 0 20 20">
  <defs>
    <style>
      .cls-1 {
        fill: #646464;
      }
    </style>
  </defs>
  <g id="Layer_2" data-name="Layer 2" transform="translate(-2 -2)">
    <path id="Path_97" data-name="Path 97" class="cls-1" d="M21,2H3A1,1,0,0,0,2,3V21a1,1,0,0,0,1,1H21a1,1,0,0,0,1-1V3A1,1,0,0,0,21,2ZM20,20H4V4H20Z"/>
    <path id="Path_98" data-name="Path 98" class="cls-1" d="M9.55,15.89a1,1,0,0,0,1-.09l4-3a1,1,0,0,0,0-1.6l-4-3A1,1,0,0,0,9,9v6A1,1,0,0,0,9.55,15.89ZM11,11l1.33,1L11,13Z"/>
    <rect id="Rectangle_2128" data-name="Rectangle 2128" class="cls-1" width="2" height="2" transform="translate(5 5)"/>
    <rect id="Rectangle_2129" data-name="Rectangle 2129" class="cls-1" width="2" height="2" transform="translate(9 5)"/>
    <rect id="Rectangle_2130" data-name="Rectangle 2130" class="cls-1" width="2" height="2" transform="translate(13 5)"/>
    <rect id="Rectangle_2131" data-name="Rectangle 2131" class="cls-1" width="2" height="2" transform="translate(17 5)"/>
    <rect id="Rectangle_2132" data-name="Rectangle 2132" class="cls-1" width="2" height="2" transform="translate(5 17)"/>
    <rect id="Rectangle_2133" data-name="Rectangle 2133" class="cls-1" width="2" height="2" transform="translate(9 17)"/>
    <rect id="Rectangle_2134" data-name="Rectangle 2134" class="cls-1" width="2" height="2" transform="translate(13 17)"/>
    <rect id="Rectangle_2135" data-name="Rectangle 2135" class="cls-1" width="2" height="2" transform="translate(17 17)"/>
  </g>
</svg>
