<svg xmlns="http://www.w3.org/2000/svg" width="20" height="20" viewBox="0 0 20 20">
  <defs>
    <style>
      .cls-1 {
        fill: #646464;
      }
    </style>
  </defs>
  <g id="movie-box" transform="translate(-2 -2)">
    <path id="Path_104" data-name="Path 104" class="cls-1" d="M21,2H3A1,1,0,0,0,2,3V21a1,1,0,0,0,1,1H21a1,1,0,0,0,1-1V3A1,1,0,0,0,21,2ZM20,20H4V4H20Z"/>
    <path id="Path_105" data-name="Path 105" class="cls-1" d="M9.55,15.89a1,1,0,0,0,1-.09l4-3a1,1,0,0,0,0-1.6l-4-3A1,1,0,0,0,9,9v6A1,1,0,0,0,9.55,15.89ZM11,11l1.33,1L11,13Z"/>
    <rect id="Rectangle_2136" data-name="Rectangle 2136" class="cls-1" width="2" height="2" transform="translate(5 5)"/>
    <rect id="Rectangle_2137" data-name="Rectangle 2137" class="cls-1" width="2" height="2" transform="translate(9 5)"/>
    <rect id="Rectangle_2138" data-name="Rectangle 2138" class="cls-1" width="2" height="2" transform="translate(13 5)"/>
    <rect id="Rectangle_2139" data-name="Rectangle 2139" class="cls-1" width="2" height="2" transform="translate(17 5)"/>
    <rect id="Rectangle_2140" data-name="Rectangle 2140" class="cls-1" width="2" height="2" transform="translate(5 17)"/>
    <rect id="Rectangle_2141" data-name="Rectangle 2141" class="cls-1" width="2" height="2" transform="translate(9 17)"/>
    <rect id="Rectangle_2142" data-name="Rectangle 2142" class="cls-1" width="2" height="2" transform="translate(13 17)"/>
    <rect id="Rectangle_2143" data-name="Rectangle 2143" class="cls-1" width="2" height="2" transform="translate(17 17)"/>
  </g>
</svg>
