<?xml version="1.0" ?><svg viewBox="0 0 24 24" xmlns="http://www.w3.org/2000/svg"><title/><g data-name="Layer 2" id="Layer_2"><path d="M21,2H3A1,1,0,0,0,2,3V21a1,1,0,0,0,1,1H21a1,1,0,0,0,1-1V3A1,1,0,0,0,21,2ZM20,20H4V4H20Z"/><path d="M9.55,15.89a1,1,0,0,0,1-.09l4-3a1,1,0,0,0,0-1.6l-4-3A1,1,0,0,0,9,9v6A1,1,0,0,0,9.55,15.89ZM11,11l1.33,1L11,13Z"/><rect height="2" width="2" x="5" y="5"/><rect height="2" width="2" x="9" y="5"/><rect height="2" width="2" x="13" y="5"/><rect height="2" width="2" x="17" y="5"/><rect height="2" width="2" x="5" y="17"/><rect height="2" width="2" x="9" y="17"/><rect height="2" width="2" x="13" y="17"/><rect height="2" width="2" x="17" y="17"/></g></svg>