<svg xmlns="http://www.w3.org/2000/svg" width="25" height="26" viewBox="0 0 25 26">
  <defs>
    <style>
      .cls-1 {
        fill: #646464;
      }
    </style>
  </defs>
  <g id="payment" transform="translate(-3 -2)">
    <g id="Group_107" data-name="Group 107">
      <path id="Path_94" data-name="Path 94" class="cls-1" d="M12,6a9,9,0,1,0,9,9A9,9,0,0,0,12,6Zm1,13.014V20H11v-.978a2.446,2.446,0,0,1-2.274-2.34h1.9c.049.569.617.932,1.44.932.742,0,1.252-.358,1.252-.873,0-.433-.342-.666-1.235-.845L11.05,15.69c-1.43-.271-2.167-1.051-2.167-2.28A2.443,2.443,0,0,1,11,11V10h2v1a2.471,2.471,0,0,1,2.122,2.315H13.287a1.143,1.143,0,0,0-1.268-.937c-.7,0-1.159.331-1.159.851,0,.428.347.677,1.17.839l1.008.195c1.544.3,2.237,1,2.237,2.237A2.5,2.5,0,0,1,13,19.014Z"/>
    </g>
    <g id="Group_108" data-name="Group 108">
      <path id="Path_95" data-name="Path 95" class="cls-1" d="M22.8,12.961a10.841,10.841,0,0,1-1.046,7.1,1.984,1.984,0,0,1,.517,1.444A2.5,2.5,0,0,1,20,24.014V25H18v-.792a10.907,10.907,0,0,1-4.419,1.665A8,8,0,1,0,22.8,12.961Z"/>
    </g>
    <g id="Group_109" data-name="Group 109">
      <path id="Path_96" data-name="Path 96" class="cls-1" d="M19,6V5h2V6a2.471,2.471,0,0,1,2.122,2.315H21.286a1.143,1.143,0,0,0-1.268-.937c-.032,0-.055.009-.086.011a11.044,11.044,0,0,1,1.5,1.97,2.135,2.135,0,0,1,1.777,1.577,10.02,10.02,0,0,1,3.736,3.007A7.906,7.906,0,0,0,28,10,7.985,7.985,0,0,0,14.43,4.278a10.932,10.932,0,0,1,4.091,1.877A3.584,3.584,0,0,1,19,6Z"/>
    </g>
  </g>
</svg>
