<svg xmlns="http://www.w3.org/2000/svg" width="160" height="160"><defs><pattern id="a" data-name="cc-pixel-navy-dot" width="4" height="4" patternUnits="userSpaceOnUse"><path fill="none" d="M0 0h4v4H0z"/><path class="b" d="M0 0h1v1H0zM2 2h1v1H2z"/></pattern><style>.f{fill:none}.b,.c{fill:#10162f}.c,.f{stroke:#10162f;stroke-miterlimit:10}.c{stroke-width:.38px}</style></defs><rect class="c" x="135.68" y="96.36" width="24" height="24" rx="12"/><path fill="url(#a)" stroke="#10162f" stroke-miterlimit="10" d="M93.21 142.52L33.45 108.5l58.52-33.2 1.24 67.22z"/><path fill="#fff6cc" stroke="#10162f" stroke-miterlimit="10" d="M91.97 75.3L63.16 24.98l84.87 16.89L91.97 75.3z"/><path class="f" d="M5.12 58.85l58.04-33.87M91.97 75.43l55.71 32.93"/><circle class="c" cx="5.2" cy="58.86" r="5"/><circle class="c" cx="33.8" cy="108.5" r="5"/><circle class="c" cx="148.03" cy="41.87" r="5"/><circle cx="93.03" cy="142.34" r="5.29" stroke-width=".45" stroke="#10162f" stroke-miterlimit="10" fill="#10162f"/><rect class="c" x="53.24" y="15.12" width="20" height="20" rx="10"/><circle class="c" cx="91.97" cy="75.36" r="6"/></svg>