<svg xmlns="http://www.w3.org/2000/svg" width="184.231" height="155.125" viewBox="0 0 184.231 155.125">
  <defs>
    <style>
      .cls-1 {
        fill: #646464;
      }
    </style>
  </defs>
  <g id="tickets" transform="translate(-7.883 -22.439)">
    <path id="Path_100" data-name="Path 100" class="cls-1" d="M141.508,114.066H138.3a3.5,3.5,0,0,0,0,7h3.21a3.5,3.5,0,0,0,0-7Z"/>
    <path id="Path_101" data-name="Path 101" class="cls-1" d="M153.814,114.066H150.6a3.5,3.5,0,0,0,0,7h3.21a3.5,3.5,0,0,0,0-7Z"/>
    <path id="Path_102" data-name="Path 102" class="cls-1" d="M188.615,63.928h-8.031a3.5,3.5,0,0,0-3.5,3.5,7.23,7.23,0,1,1-14.46,0,3.5,3.5,0,0,0-3.5-3.5H47.523l97.932-19.623a3.5,3.5,0,0,0,2.745-4.119l-1.5-7.493a12.116,12.116,0,0,0-7.394-8.867,3.453,3.453,0,0,0-4.594-.87,12.1,12.1,0,0,0-2.281.23l-114.8,23a12.125,12.125,0,0,0-9.506,14.27l1.5,7.493a3.487,3.487,0,0,0,.617,1.374v73.536a13.23,13.23,0,0,0,13.22,13.209h90.78a3.5,3.5,0,1,0,0-7H23.461a6.221,6.221,0,0,1-6.22-6.209V87.2h127.33v14.4l-.089-.043a7.205,7.205,0,0,1-.761-.445l-.041-.031a7.247,7.247,0,0,1-.656-.515c-.06-.052-.119-.106-.177-.161a7.254,7.254,0,0,1-.525-.542c-.03-.035-.063-.067-.093-.1a7.234,7.234,0,0,1-.52-.708c-.04-.061-.076-.125-.114-.187-.124-.2-.237-.413-.341-.629-.031-.064-.064-.127-.093-.192a7.26,7.26,0,0,1-.312-.835c-.016-.053-.027-.107-.041-.16a6.987,6.987,0,0,1-.162-.742c-.014-.083-.027-.165-.038-.249a7.177,7.177,0,0,1-.067-.933,3.5,3.5,0,0,0-3.5-3.5H125.988a3.5,3.5,0,0,0-3.5,3.5v78.944a3.5,3.5,0,0,0,3.5,3.5h11.053a3.5,3.5,0,0,0,3.5-3.5,7.229,7.229,0,0,1,14.459,0,3.5,3.5,0,0,0,3.5,3.5h8.031a3.5,3.5,0,0,0,3.5-3.5V139.151a7.24,7.24,0,0,1,7.052,7.232,3.5,3.5,0,0,0,3.5,3.5h8.031a3.5,3.5,0,0,0,3.5-3.5V67.428A3.5,3.5,0,0,0,188.615,63.928Zm-50.782-32.97a5.089,5.089,0,0,1,2,3.109l.813,4.062-7.371,1.477Zm-16.385,1.567L130,30.812,124.43,41.378l-8.549,1.713Zm-17.4,3.486L112.6,34.3l-5.567,10.566-8.549,1.713ZM86.657,39.5l8.548-1.713L89.638,48.35,81.09,50.063Zm-17.4,3.485,8.549-1.713L72.243,51.835l-8.549,1.713Zm-17.4,3.486,8.549-1.713L54.848,55.321,46.3,57.034ZM37.451,58.807,28.9,60.52,34.47,49.954l8.549-1.713ZM15.8,63.146l-.813-4.062a5.129,5.129,0,0,1,4.018-6.031l6.619-1.326L20.057,62.293Zm1.441,7.782H29.123L21.587,80.2H17.242V70.928ZM39.328,80.2H30.609l7.536-9.269h8.719Zm17.742,0H48.35l7.536-9.269H64.6Zm17.741,0H66.092l7.536-9.269h8.719Zm17.741,0H83.833l7.536-9.269h8.72Zm17.742,0h-8.719l7.536-9.269h8.719Zm17.741,0h-8.719l7.536-9.269h8.719Zm9.022,0,7.514-9.241V80.2Zm25.975,33.87h-.121a3.5,3.5,0,0,0,0,7h.121v49.5h-1.467a14.232,14.232,0,0,0-27.589,0h-4.488V121.037a3.481,3.481,0,0,0,0-6.942V98.62h4.488a14.254,14.254,0,0,0,13.794,10.73c.131,0,.262-.006.393-.013h.007c.036,0,.072,0,.108,0,.172-.006.341-.027.511-.04.208-.015.418-.024.624-.048.186-.022.367-.057.551-.086.2-.032.408-.058.608-.1.181-.037.357-.087.536-.13.2-.048.4-.091.591-.148.175-.051.344-.114.516-.172.192-.064.387-.123.575-.195.168-.064.329-.14.494-.211.186-.08.375-.154.557-.241.161-.077.316-.166.474-.249.178-.094.359-.182.532-.283s.308-.194.462-.292.335-.205.495-.316.3-.222.445-.333.311-.226.46-.347.282-.248.423-.372.288-.245.425-.376.271-.278.406-.418.259-.258.38-.393c.14-.156.269-.322.4-.484.106-.129.218-.253.319-.386.138-.18.264-.37.394-.557.086-.123.177-.242.259-.368.131-.2.248-.412.369-.62.069-.12.145-.235.211-.356.127-.235.24-.478.354-.72.048-.1.1-.2.148-.3.124-.281.233-.569.339-.858.026-.07.057-.137.082-.208q.189-.543.335-1.1h1.476v15.446Zm22.083-27.685H185a3.5,3.5,0,0,0,0,7h.119v49.5h-1.466a14.262,14.262,0,0,0-13.617-10.74V95.12a3.5,3.5,0,0,0-3.423-3.492,3.459,3.459,0,0,0,.484-1.747,3.5,3.5,0,0,0-3.5-3.5h-3.21a3.495,3.495,0,0,0-2.925,5.415A3.488,3.488,0,0,0,155,95.12a7.107,7.107,0,0,1-.057.855c-.01.084-.025.167-.038.25-.032.2-.072.4-.121.6-.021.083-.04.166-.063.248a7.331,7.331,0,0,1-.245.719c-.008.021-.014.043-.023.063a7.269,7.269,0,0,1-.361.736c-.039.07-.081.136-.122.205q-.154.258-.33.5c-.049.068-.1.137-.149.2-.145.188-.3.369-.461.542-.024.026-.045.053-.07.079a7.183,7.183,0,0,1-.6.554c-.055.046-.113.087-.169.131-.164.128-.334.25-.508.364-.036.024-.073.047-.109.069v-7.89a3.481,3.481,0,0,0,0-6.942V83.735c0-.013,0-.026,0-.039s0-.026,0-.039V70.927h4.486a14.23,14.23,0,0,0,27.592,0h1.466V86.381Z"/>
    <path id="Path_103" data-name="Path 103" class="cls-1" d="M175.9,86.381h-3.21a3.5,3.5,0,0,0,0,7h3.21a3.5,3.5,0,0,0,0-7Z"/>
  </g>
</svg>
