<?xml version="1.0" ?><svg enable-background="new 0 0 200 200" id="Layer_1" version="1.1" viewBox="0 0 200 200" xml:space="preserve" xmlns="http://www.w3.org/2000/svg" xmlns:xlink="http://www.w3.org/1999/xlink"><g><path d="M88.021,98.735c-3.052-3.256-7.133-5.049-11.497-5.049c-4.363,0-8.453,1.801-11.526,5.079   c-2.955,3.173-4.577,7.431-4.629,11.785c-2.501,0.358-4.807,1.556-6.605,3.482c-4.344,4.639-4.344,12.187-0.001,16.824   l12.853,13.74c0.661,0.708,1.587,1.109,2.556,1.109h0.001c0.97,0,1.896-0.402,2.557-1.111l6.863-7.348l6.873,7.35   c0.662,0.708,1.588,1.109,2.557,1.109s1.895-0.401,2.557-1.109l20.461-21.883c6.161-6.59,6.164-17.333-0.002-23.956   c-3.064-3.271-7.155-5.072-11.519-5.072C95.168,93.687,91.09,95.477,88.021,98.735z M79.471,126.07l-3.435,3.658   c-0.024,0.025-0.04,0.055-0.063,0.081l-6.805,7.272l-10.296-11.006c-1.841-1.968-1.842-5.291,0.004-7.262   c0.836-0.895,1.923-1.388,3.063-1.388c0.437,0,0.846,0.065,1.287,0.218c0.66,0.215,1.261,0.608,1.796,1.182l1.6,1.699   c0.662,0.702,1.584,1.101,2.549,1.101c0.002,0,0.004,0,0.007,0c0.967-0.002,1.89-0.403,2.551-1.11l1.589-1.701   c0.836-0.895,1.927-1.388,3.073-1.388c1.141,0,2.235,0.496,3.073,1.388C81.298,120.779,81.3,124.1,79.471,126.07z M105.925,117.934   C105.925,117.935,105.925,117.935,105.925,117.934l-17.904,19.149l-4.633-4.957l1.184-1.26c0.003-0.004,0.007-0.008,0.011-0.012   c4.326-4.637,4.325-12.181-0.009-16.825c-2.184-2.324-5.09-3.604-8.183-3.604c-2.67,0-5.192,0.946-7.227,2.688   c-0.55-0.469-1.137-0.88-1.746-1.229c-0.321-3.06,0.655-6.148,2.695-8.34c1.728-1.844,4.004-2.858,6.411-2.858   c2.414,0,4.688,1.013,6.401,2.849l2.532,2.722c0.662,0.712,1.59,1.116,2.563,1.116c0.972,0,1.899-0.404,2.562-1.115l2.526-2.714   c1.726-1.843,4.002-2.857,6.409-2.857s4.684,1.015,6.402,2.85C109.625,107.516,109.627,113.975,105.925,117.934z" fill="#1D1D1B"/><path d="M141.508,114.066h-3.21c-1.933,0-3.5,1.567-3.5,3.5s1.567,3.5,3.5,3.5h3.21c1.933,0,3.5-1.567,3.5-3.5   S143.44,114.066,141.508,114.066z" fill="#1D1D1B"/><path d="M153.814,114.066h-3.21c-1.933,0-3.5,1.567-3.5,3.5s1.567,3.5,3.5,3.5h3.21c1.933,0,3.5-1.567,3.5-3.5   S155.747,114.066,153.814,114.066z" fill="#1D1D1B"/><path d="M188.615,63.928h-8.031c-1.933,0-3.5,1.567-3.5,3.5c0,3.993-3.243,7.241-7.23,7.241s-7.23-3.248-7.23-7.241   c0-1.933-1.567-3.5-3.5-3.5h-11.052H47.523l97.932-19.623c0.91-0.183,1.711-0.719,2.226-1.491s0.701-1.718,0.519-2.628   l-1.502-7.493c-0.833-4.161-3.721-7.393-7.394-8.867c-0.3-0.396-0.681-0.74-1.149-0.987c-1.129-0.595-2.428-0.5-3.445,0.117   c-0.753,0.006-1.516,0.077-2.281,0.23L17.629,46.189c-3.176,0.636-5.913,2.471-7.708,5.166c-1.796,2.695-2.435,5.929-1.798,9.104   l1.501,7.493c0.101,0.504,0.319,0.967,0.617,1.374v73.536c0,7.283,5.931,13.209,13.22,13.209h90.78c1.933,0,3.5-1.567,3.5-3.5   s-1.567-3.5-3.5-3.5h-90.78c-3.43,0-6.22-2.785-6.22-6.209V87.196h127.33v14.398c-0.03-0.015-0.06-0.028-0.089-0.043   c-0.262-0.135-0.519-0.28-0.761-0.445c-0.014-0.01-0.027-0.021-0.041-0.031c-0.229-0.158-0.447-0.332-0.656-0.515   c-0.06-0.052-0.119-0.106-0.177-0.161c-0.184-0.172-0.36-0.352-0.525-0.542c-0.03-0.035-0.063-0.067-0.093-0.102   c-0.188-0.224-0.36-0.462-0.52-0.708c-0.04-0.061-0.076-0.125-0.114-0.187c-0.124-0.203-0.237-0.413-0.341-0.629   c-0.031-0.064-0.064-0.127-0.093-0.192c-0.12-0.27-0.225-0.549-0.312-0.835c-0.016-0.053-0.027-0.107-0.041-0.16   c-0.067-0.242-0.121-0.49-0.162-0.742c-0.014-0.083-0.027-0.165-0.038-0.249c-0.04-0.306-0.067-0.616-0.067-0.933   c0-1.933-1.567-3.5-3.5-3.5h-11.053c-1.933,0-3.5,1.567-3.5,3.5v57.451v21.493c0,1.933,1.567,3.5,3.5,3.5h11.053   c1.933,0,3.5-1.567,3.5-3.5c0-3.986,3.243-7.229,7.229-7.229c3.987,0,7.23,3.243,7.23,7.229c0,1.933,1.567,3.5,3.5,3.5h8.031   c1.933,0,3.5-1.567,3.5-3.5v-34.913c3.904,0.096,7.052,3.299,7.052,7.232c0,1.933,1.567,3.5,3.5,3.5h8.031   c1.933,0,3.5-1.567,3.5-3.5V67.428C192.115,65.495,190.548,63.928,188.615,63.928z M137.833,30.958   c0.995,0.73,1.74,1.807,2.001,3.109l0.813,4.062l-7.371,1.477L137.833,30.958z M121.448,32.525l8.549-1.713l-5.567,10.566   l-8.549,1.713L121.448,32.525z M104.052,36.011l8.549-1.713l-5.567,10.566l-8.549,1.713L104.052,36.011z M86.657,39.497   l8.548-1.713L89.638,48.35l-8.548,1.713L86.657,39.497z M69.261,42.982l8.549-1.713l-5.567,10.566l-8.549,1.713L69.261,42.982z    M51.866,46.468l8.549-1.713l-5.567,10.566l-8.549,1.713L51.866,46.468z M37.451,58.807l-8.548,1.713l5.567-10.566l8.549-1.713   L37.451,58.807z M15.8,63.146l-0.813-4.062c-0.555-2.771,1.247-5.477,4.018-6.031l6.619-1.326l-5.567,10.566L15.8,63.146z    M17.241,70.928h11.882l-7.536,9.269h-4.345V70.928z M39.328,80.196h-8.719l7.536-9.269h8.719L39.328,80.196z M57.07,80.196h-8.72   l7.536-9.269h8.719L57.07,80.196z M74.811,80.196h-8.719l7.536-9.269h8.719L74.811,80.196z M92.552,80.196h-8.719l7.536-9.269h8.72   L92.552,80.196z M110.294,80.196h-8.719l7.536-9.269h8.719L110.294,80.196z M128.035,80.196h-8.719l7.536-9.269h8.719   L128.035,80.196z M137.057,80.196l7.514-9.241v9.241H137.057z M163.032,114.066h-0.121c-1.933,0-3.5,1.567-3.5,3.5   s1.567,3.5,3.5,3.5h0.121v15.098v34.4h-1.467c-1.563-6.159-7.155-10.729-13.795-10.729c-6.639,0-12.23,4.57-13.794,10.729h-4.488   v-17.993v-31.534c1.796-0.148,3.213-1.637,3.213-3.471s-1.417-3.323-3.213-3.471V98.62h4.488c1.563,6.16,7.155,10.73,13.794,10.73   c0.131,0,0.262-0.006,0.393-0.013c0.001,0,0.001,0,0.002,0c0.002,0,0.004,0,0.005,0c0.036-0.002,0.072-0.001,0.108-0.004   c0.172-0.006,0.341-0.027,0.511-0.04c0.208-0.015,0.418-0.024,0.624-0.048c0.186-0.022,0.367-0.057,0.551-0.086   c0.203-0.032,0.408-0.058,0.608-0.099c0.181-0.037,0.357-0.087,0.536-0.13c0.198-0.048,0.397-0.091,0.591-0.148   c0.175-0.051,0.344-0.114,0.516-0.172c0.192-0.064,0.387-0.123,0.575-0.195c0.168-0.064,0.329-0.14,0.494-0.211   c0.186-0.08,0.375-0.154,0.557-0.241c0.161-0.077,0.316-0.166,0.474-0.249c0.178-0.094,0.359-0.182,0.532-0.283   c0.158-0.092,0.308-0.194,0.462-0.292c0.166-0.105,0.335-0.205,0.495-0.316c0.153-0.106,0.297-0.222,0.445-0.333   c0.154-0.115,0.311-0.226,0.46-0.347c0.146-0.119,0.282-0.248,0.423-0.372c0.142-0.125,0.288-0.245,0.425-0.376   c0.141-0.134,0.271-0.278,0.406-0.418c0.127-0.131,0.259-0.258,0.38-0.393c0.14-0.156,0.269-0.322,0.402-0.484   c0.106-0.129,0.218-0.253,0.319-0.386c0.138-0.18,0.264-0.37,0.394-0.557c0.086-0.123,0.177-0.242,0.259-0.368   c0.131-0.202,0.248-0.412,0.369-0.62c0.069-0.12,0.145-0.235,0.211-0.356c0.127-0.235,0.24-0.478,0.354-0.72   c0.048-0.102,0.103-0.2,0.148-0.303c0.124-0.281,0.233-0.569,0.339-0.858c0.026-0.07,0.057-0.137,0.082-0.208   c0.126-0.362,0.238-0.73,0.335-1.104h1.476V114.066z M185.115,86.381h-0.119c-1.933,0-3.5,1.567-3.5,3.5s1.567,3.5,3.5,3.5h0.119   v49.503h-1.466c-1.549-6.11-7.056-10.658-13.617-10.74V95.12c0-1.906-1.527-3.451-3.423-3.492c0.3-0.516,0.484-1.107,0.484-1.747   c0-1.933-1.567-3.5-3.5-3.5h-3.21c-1.933,0-3.5,1.567-3.5,3.5c0,0.708,0.214,1.364,0.575,1.915   c-1.42,0.446-2.457,1.757-2.457,3.324c0,0.289-0.023,0.574-0.057,0.855c-0.01,0.084-0.025,0.167-0.038,0.25   c-0.032,0.203-0.072,0.404-0.121,0.601c-0.021,0.083-0.04,0.166-0.063,0.248c-0.07,0.245-0.151,0.485-0.245,0.719   c-0.008,0.021-0.014,0.043-0.023,0.063c-0.105,0.253-0.229,0.498-0.361,0.736c-0.039,0.07-0.081,0.136-0.122,0.205   c-0.103,0.172-0.213,0.34-0.33,0.503c-0.049,0.068-0.097,0.137-0.149,0.203c-0.145,0.188-0.298,0.369-0.461,0.542   c-0.024,0.026-0.045,0.053-0.07,0.079c-0.189,0.196-0.391,0.38-0.602,0.554c-0.055,0.046-0.113,0.087-0.169,0.131   c-0.164,0.128-0.334,0.25-0.508,0.364c-0.036,0.024-0.073,0.047-0.109,0.069v-7.89c1.797-0.147,3.215-1.636,3.215-3.471   s-1.418-3.324-3.215-3.471v-2.675c0-0.013,0.004-0.026,0.004-0.039s-0.004-0.026-0.004-0.039v-12.73h4.486   c1.563,6.166,7.155,10.741,13.796,10.741s12.233-4.575,13.796-10.741h1.466V86.381z" fill="#1D1D1B"/><path d="M175.899,86.381h-3.21c-1.933,0-3.5,1.567-3.5,3.5s1.567,3.5,3.5,3.5h3.21c1.933,0,3.5-1.567,3.5-3.5   S177.832,86.381,175.899,86.381z" fill="#1D1D1B"/></g></svg>